# xmcd CD database file
#
# Track frame offsets:
#	150
#	20205
#	41439
#	67204
#	86630
#	113718
#	132773
#	152929
#	169334
#	185592
#	200505
#	218183
#	232734
#
# Disc length: 3323 seconds
#
# Revision: 1
# Processed by: cddbd v1.5.2PL0 Copyright (c) Steve Scherf et al.
# Submitted via: CDex 1.51
#
DISCID=ba0cf90d
DTITLE=Billie Holiday - [CD 08-10] - I Get A Kick Out Of You
DYEAR=1900
DGENRE=Jazz
TTITLE0=What's New ¿  [1955}
TTITLE1=Everything I Have Is Yours  [1955}
TTITLE2=I Get A Kick Out Of You  [1955}
TTITLE3=Isn't This A Lovely Day  [1955}
TTITLE4=I Gotta Right To Sing The Blues  [1955}
TTITLE5=I Hadn't Anyone Till You  [1955}
TTITLE6=Come Rain Or Come Shine  [1955}
TTITLE7=A Fine Romance  [1955}
TTITLE8=(I Don't Stand A)  Ghost Of A Chance  [1956}
TTITLE9=Trav'lin' Light  [1956}
TTITLE10=Lady Sings The Blues  [1956}
TTITLE11=I Must Have That Man  [1956}
TTITLE12=Some Other Spring  [1956}
EXTD=
EXTT0=
EXTT1=
EXTT2=
EXTT3=
EXTT4=
EXTT5=
EXTT6=
EXTT7=
EXTT8=
EXTT9=
EXTT10=
EXTT11=
EXTT12=
PLAYORDER=
